# 3ds Max Wavefront OBJ Exporter v0.97b - (c)2007 guruware
# File Created: 12.03.2014 18:09:30

mtllib Swings.mtl

#
# object Cylinder001
#

v  -9.6209 0.0658 0.2100
v  -9.8594 0.0385 -0.9911
v  14.1734 40.6743 -1.8277
v  14.2144 39.7684 -0.1498
v  -10.5027 0.0230 -1.5445
v  14.1435 41.4366 -1.9030
v  -11.1760 0.0129 -1.1189
v  14.1072 42.1253 -1.8743
v  -11.4829 -0.0014 0.0439
v  14.0633 43.1057 -0.1245
v  -11.2416 0.0042 1.2556
v  14.0958 42.1926 1.4843
v  -10.5955 0.0416 1.7990
v  14.1334 41.4604 1.5533
v  -9.9250 0.0735 1.3628
v  14.1623 40.7253 1.5053
v  39.3723 0.0658 -0.3271
v  39.6108 0.0385 0.8740
v  15.5781 40.6743 1.7106
v  15.5370 39.7684 0.0327
v  40.2541 0.0230 1.4274
v  15.6079 41.4366 1.7859
v  40.9274 0.0129 1.0018
v  15.6442 42.1253 1.7572
v  41.2344 -0.0014 -0.1610
v  15.6881 43.1058 0.0074
v  40.9931 0.0042 -1.3727
v  15.6556 42.1926 -1.6014
v  40.3469 0.0416 -1.9161
v  15.6180 41.4604 -1.6704
v  39.6764 0.0735 -1.4799
v  15.5892 40.7253 -1.6224
v  39.3747 0.0658 -72.2278
v  39.6132 0.0385 -71.0267
v  15.5804 40.6743 -70.1901
v  15.5394 39.7684 -71.8679
v  40.2565 0.0230 -70.4733
v  15.6103 41.4366 -70.1148
v  40.9297 0.0129 -70.8989
v  15.6466 42.1253 -70.1435
v  41.2367 -0.0013 -72.0617
v  15.6905 43.1058 -71.8933
v  40.9954 0.0042 -73.2734
v  15.6580 42.1926 -73.5021
v  40.3493 0.0417 -73.8167
v  15.6204 41.4604 -73.5711
v  39.6788 0.0735 -73.3806
v  15.5915 40.7253 -73.5231
v  -9.6185 0.0658 -71.6907
v  -9.8571 0.0385 -72.8918
v  14.1757 40.6743 -73.7284
v  14.2168 39.7684 -72.0505
v  -10.5003 0.0230 -73.4452
v  14.1458 41.4366 -73.8037
v  -11.1736 0.0129 -73.0196
v  14.1095 42.1253 -73.7750
v  -11.4806 -0.0013 -71.8568
v  14.0657 43.1058 -72.0252
v  -11.2393 0.0042 -70.6450
v  14.0982 42.1926 -70.4163
v  -10.5931 0.0417 -70.1017
v  14.1357 41.4604 -70.3474
v  -9.9226 0.0735 -70.5379
v  14.1646 40.7253 -70.3954
v  11.1805 7.5108 -64.9402
v  19.0467 7.5108 -64.9402
v  19.0467 7.5109 -53.3678
v  11.1805 7.5109 -53.3678
v  19.0467 8.7811 -64.9402
v  11.1805 8.7811 -64.9402
v  11.1805 8.7811 -53.3678
v  19.0467 8.7811 -53.3678
v  11.1805 7.5109 -52.5694
v  19.0467 7.5108 -52.5694
v  19.0467 8.7811 -52.5694
v  11.1805 8.7811 -52.5694
v  19.0467 7.5108 -65.7386
v  11.1805 7.5108 -65.7386
v  11.1805 8.7811 -65.7386
v  19.0467 8.7811 -65.7386
v  11.1805 7.5109 -41.8345
v  19.0467 7.5108 -41.8345
v  19.0467 7.5108 -30.2621
v  11.1805 7.5108 -30.2621
v  19.0467 8.7811 -41.8345
v  11.1805 8.7811 -41.8345
v  11.1805 8.7811 -30.2621
v  19.0467 8.7811 -30.2621
v  11.1805 7.5109 -29.4638
v  19.0467 7.5108 -29.4638
v  19.0467 8.7811 -29.4638
v  11.1805 8.7811 -29.4638
v  19.0467 7.5108 -42.6329
v  11.1805 7.5109 -42.6329
v  11.1805 8.7811 -42.6329
v  19.0467 8.7811 -42.6329
v  11.1805 7.5108 -18.7289
v  19.0467 7.5108 -18.7289
v  19.0467 7.5109 -7.1565
v  11.1805 7.5109 -7.1565
v  19.0467 8.7811 -18.7289
v  11.1805 8.7811 -18.7289
v  11.1805 8.7811 -7.1565
v  19.0467 8.7811 -7.1565
v  11.1805 7.5109 -6.3581
v  19.0467 7.5108 -6.3581
v  19.0467 8.7811 -6.3581
v  11.1805 8.7811 -6.3581
v  19.0467 7.5108 -19.5272
v  11.1805 7.5109 -19.5272
v  11.1805 8.7811 -19.5272
v  19.0467 8.7811 -19.5272
v  15.2501 41.0884 -65.5138
v  14.9772 41.0884 -65.5138
v  14.9772 41.0884 -65.1653
v  15.2501 41.0884 -65.1653
v  14.9771 41.0884 -52.7944
v  15.2499 41.0884 -52.7944
v  15.2499 41.0884 -53.1429
v  14.9771 41.0884 -53.1429
v  15.2499 41.0884 -42.4080
v  14.9771 41.0884 -42.4080
v  14.9771 41.0883 -42.0595
v  15.2499 41.0884 -42.0595
v  14.9771 41.0884 -29.6885
v  15.2500 41.0884 -29.6885
v  15.2500 41.0884 -30.0371
v  14.9771 41.0884 -30.0371
v  15.2500 41.0884 -19.3024
v  14.9771 41.0884 -19.3024
v  14.9771 41.0884 -18.9538
v  15.2500 41.0884 -18.9538
v  14.9773 41.0884 -6.5830
v  15.2501 41.0884 -6.5830
v  15.2501 41.0884 -6.9315
v  14.9773 41.0884 -6.9315
v  14.9772 11.2639 -65.5136
v  15.2500 11.2639 -65.5136
v  14.9772 11.2639 -65.1651
v  15.2500 11.2639 -65.1651
v  15.2501 11.2639 -52.7943
v  14.9772 11.2639 -52.7943
v  15.2501 11.2639 -53.1429
v  14.9772 11.2639 -53.1429
v  14.9772 11.2639 -42.4080
v  15.2501 11.2639 -42.4080
v  14.9772 11.2639 -42.0594
v  15.2501 11.2639 -42.0594
v  15.2500 11.2639 -29.6887
v  14.9772 11.2639 -29.6887
v  15.2501 11.2639 -30.0372
v  14.9772 11.2639 -30.0372
v  14.9772 11.2639 -19.3023
v  15.2501 11.2639 -19.3023
v  14.9772 11.2639 -18.9538
v  15.2501 11.2639 -18.9538
v  15.2500 11.2639 -6.5830
v  14.9772 11.2639 -6.5830
v  15.2500 11.2639 -6.9316
v  14.9772 11.2639 -6.9316
# 160 vertices

vn 0.7034 -0.8280 0.0546
vn 0.5402 -0.6411 -0.6316
vn 0.3135 -0.3883 -0.8854
vn 0.7030 -0.8300 0.0181
vn -0.1499 0.1612 -0.9808
vn -0.0124 0.0004 -1.0001
vn -0.6120 0.7108 -0.5122
vn -0.5170 0.6013 -0.6897
vn -0.7045 0.8283 -0.0294
vn -0.7056 0.8276 -0.0067
vn -0.6300 0.7469 0.4329
vn -0.5213 0.6118 0.6681
vn -0.2442 0.2940 0.9337
vn -0.0424 0.0510 0.9977
vn 0.4859 -0.5709 0.7297
vn 0.3126 -0.3603 0.9019
vn 0.0880 -1.0295 0.0080
vn 0.0987 -1.0304 -0.0071
vn 0.0832 -1.0290 0.0025
vn 0.0827 -1.0289 0.0130
vn 0.0686 -1.0274 -0.0088
vn 0.0779 -1.0285 0.0074
vn 0.0670 -1.0271 0.0226
vn 0.0975 -1.0301 0.0245
vn -0.6100 -0.6714 -0.0531
vn -0.4678 -0.5218 0.6327
vn -0.2694 -0.3200 0.8862
vn -0.6093 -0.6736 -0.0166
vn 0.1320 0.1263 0.9805
vn 0.0126 -0.0038 1.0001
vn 0.5320 0.5738 0.5109
vn 0.4493 0.4853 0.6886
vn 0.6111 0.6714 0.0279
vn 0.6123 0.6706 0.0052
vn 0.5457 0.6073 -0.4343
vn 0.4522 0.4967 -0.6693
vn 0.2108 0.2410 -0.9343
vn 0.0365 0.0429 -0.9978
vn -0.4215 -0.4618 -0.7286
vn -0.2722 -0.2894 -0.9013
vn 0.0398 -1.0237 -0.0059
vn 0.0291 -1.0221 0.0092
vn 0.0446 -1.0244 -0.0004
vn 0.0451 -1.0244 -0.0109
vn 0.0593 -1.0263 0.0109
vn 0.0499 -1.0251 -0.0053
vn 0.0609 -1.0263 -0.0206
vn 0.0302 -1.0220 -0.0224
vn -0.0342 0.8925 -0.4910
vn -0.0361 0.8941 -0.4887
vn -0.0329 0.8915 -0.4925
vn -0.0307 0.8897 -0.4950
vn -0.0784 0.8962 0.4907
vn -0.0804 0.8950 0.4932
vn -0.0772 0.8970 0.4892
vn -0.0755 0.8981 0.4869
vn -0.0868 0.0908 0.9924
vn -0.0793 0.0190 0.9959
vn -0.0843 -0.0052 0.9952
vn -0.0928 0.0619 0.9935
vn -0.0710 -0.0642 0.9938
vn -0.0749 -0.0816 0.9919
vn 0.0130 -0.8897 0.4897
vn 0.0201 -0.8855 0.4992
vn 0.0103 -0.8913 0.4860
vn 0.0036 -0.8952 0.4769
vn 0.1013 -0.9015 -0.4842
vn 0.1086 -0.9071 -0.4750
vn 0.0984 -0.8993 -0.4879
vn 0.0907 -0.8932 -0.4974
vn 0.2109 0.2410 -0.9343
vn 0.0592 -1.0263 0.0109
vn -0.1500 0.1612 -0.9808
vn -0.6120 0.7108 -0.5123
vn -0.5169 0.6013 -0.6897
vn -0.5213 0.6118 0.6682
vn 0.3127 -0.3603 0.9019
vn 0.0975 -1.0301 0.0244
vn 0.0766 0.0726 -0.9926
vn 0.0781 0.0015 -0.9959
vn 0.0861 -0.0242 -0.9952
vn 0.0863 0.0419 -0.9936
vn 0.0800 -0.0809 -0.9937
vn 0.0861 -0.0995 -0.9918
vn 0.1013 -0.9016 -0.4842
vn 0.0639 -1.0269 0.0010
vn -0.0639 1.0269 -0.0010
vn 0.0032 -0.0010 1.0001
vn 0.9633 -0.1148 0.0058
vn -0.0032 0.0010 -1.0001
vn -0.9633 0.1148 -0.0058
vn 0.9651 -0.2086 0.0057
vn 0.9653 -0.1978 0.0057
vn 0.9653 -0.1986 0.0057
vn 0.9650 -0.2110 0.0058
vn 0.9654 -0.1868 0.0057
vn 0.9654 -0.1866 0.0057
vn 0.0823 -1.0289 0.0004
vn 0.0833 -1.0290 0.0004
vn 0.0455 -1.0246 0.0016
vn 0.0446 -1.0244 0.0017
vn -0.9564 0.0424 -0.0056
vn -0.9548 0.0302 -0.0056
vn -0.9549 0.0311 -0.0056
vn -0.9564 0.0423 -0.0056
vn -0.9530 0.0176 -0.0056
vn -0.9534 0.0201 -0.0055
vn -0.0860 1.0293 -0.0021
vn -0.0871 1.0294 -0.0022
vn -0.0418 1.0240 0.0000
vn -0.0407 1.0239 0.0001
vn -0.0640 1.0269 -0.0011
vn -0.0640 1.0269 -0.0010
vn -0.0090 0.0937 -0.9961
vn -0.3898 1.0042 -0.0030
vn -0.0025 0.0916 0.9959
vn 0.2696 0.9256 0.0010
vn -0.0033 0.0010 -1.0001
vn 0.0033 -0.0010 1.0001
vn -0.9633 0.1148 -0.0059
vn 0.9633 -0.1148 0.0059
# 121 vertex normals

vt 0.7500 0.0000 1.0000
vt 0.8750 0.0000 1.0000
vt 0.8750 0.5000 1.0000
vt 0.7500 0.5000 1.0000
vt 1.0000 0.0000 1.0000
vt 1.0000 0.5000 1.0000
vt 0.0000 0.0000 1.0000
vt 0.1250 0.0000 1.0000
vt 0.1250 0.5000 1.0000
vt 0.0000 0.5000 1.0000
vt 0.2500 0.0000 1.0000
vt 0.2500 0.5000 1.0000
vt 0.3750 0.0000 1.0000
vt 0.3750 0.5000 1.0000
vt 0.5000 0.0000 1.0000
vt 0.5000 0.5000 1.0000
vt 0.6250 0.0000 1.0000
vt 0.6250 0.5000 1.0000
vt 1.0000 0.5000 -0.2500
vt 0.8536 0.1464 -0.2500
vt 0.5000 0.0000 -0.2500
vt 0.5000 1.0000 -0.2500
vt 0.1464 0.1464 -0.2500
vt 0.0000 0.5000 -0.2500
vt 0.1464 0.8536 -0.2500
vt 0.8536 0.8536 -0.2500
vt 1.0000 0.9394 0.0000
vt 0.0000 0.9394 0.0000
vt 0.0000 0.0606 0.0000
vt 1.0000 0.0606 0.0000
vt 0.0000 0.0000 0.0000
vt 1.0000 0.0000 0.0000
vt 1.0000 1.0000 0.0000
vt 0.0000 1.0000 0.0000
vt 0.9394 0.0000 0.0000
vt 0.9394 1.0000 0.0000
vt 0.0606 1.0000 0.0000
vt 0.0606 0.0000 0.0000
# 38 texture coords

g Cylinder001
usemtl wire_228184153
f 1/1/1 2/2/2 3/3/3 4/4/4 
f 2/2/2 5/5/5 6/6/6 3/3/3 
f 5/7/5 7/8/7 8/9/8 6/10/6 
f 7/8/7 9/11/9 10/12/10 8/9/8 
f 9/11/9 11/13/11 12/14/12 10/12/10 
f 11/13/11 13/15/13 14/16/14 12/14/12 
f 13/15/13 15/17/15 16/18/16 14/16/14 
f 15/17/15 1/1/1 4/4/4 16/18/16 
f 13/19/17 11/20/18 9/21/19 1/22/20 
f 9/21/19 7/23/21 5/24/22 1/22/20 
f 5/24/22 2/25/23 1/22/20 
f 15/26/24 13/19/17 1/22/20 
f 17/1/25 18/2/26 19/3/27 20/4/28 
f 18/2/26 21/5/29 22/6/30 19/3/27 
f 21/7/29 23/8/31 24/9/32 22/10/30 
f 23/8/31 25/11/33 26/12/34 24/9/32 
f 25/11/33 27/13/35 28/14/36 26/12/34 
f 27/13/35 29/15/37 30/16/38 28/14/36 
f 29/15/37 31/17/39 32/18/40 30/16/38 
f 31/17/39 17/1/25 20/4/28 32/18/40 
f 29/19/41 27/20/42 25/21/43 17/22/44 
f 25/21/43 23/23/45 21/24/46 17/22/44 
f 21/24/46 18/25/47 17/22/44 
f 31/26/48 29/19/41 17/22/44 
f 8/9/49 10/12/50 26/12/51 28/14/52 
f 10/12/53 12/14/54 24/9/55 26/12/56 
f 12/14/57 14/16/58 22/10/59 24/9/60 
f 14/16/58 16/18/61 19/3/62 22/6/59 
f 16/18/63 4/4/64 20/4/65 19/3/66 
f 4/4/67 3/3/68 32/18/69 20/4/70 
f 33/1/25 34/2/26 35/3/27 36/4/28 
f 34/2/26 37/5/29 38/6/30 35/3/27 
f 37/7/29 39/8/31 40/9/32 38/10/30 
f 39/8/31 41/11/33 42/12/34 40/9/32 
f 41/11/33 43/13/35 44/14/36 42/12/34 
f 43/13/35 45/15/71 46/16/38 44/14/36 
f 45/15/71 47/17/39 48/18/40 46/16/38 
f 47/17/39 33/1/25 36/4/28 48/18/40 
f 45/19/41 43/20/42 41/21/43 33/22/44 
f 41/21/43 39/23/72 37/24/46 33/22/44 
f 37/24/46 34/25/47 33/22/44 
f 47/26/48 45/19/41 33/22/44 
f 49/1/1 50/2/2 51/3/3 52/4/4 
f 50/2/2 53/5/73 54/6/6 51/3/3 
f 53/7/73 55/8/74 56/9/75 54/10/6 
f 55/8/74 57/11/9 58/12/10 56/9/75 
f 57/11/9 59/13/11 60/14/76 58/12/10 
f 59/13/11 61/15/13 62/16/14 60/14/76 
f 61/15/13 63/17/15 64/18/77 62/16/14 
f 63/17/15 49/1/1 52/4/4 64/18/77 
f 61/19/17 59/20/18 57/21/19 49/22/20 
f 57/21/19 55/23/21 53/24/22 49/22/20 
f 53/24/22 50/25/23 49/22/20 
f 63/26/78 61/19/17 49/22/20 
f 40/9/55 42/12/56 58/12/53 60/14/54 
f 42/12/51 44/14/52 56/9/49 58/12/50 
f 44/14/79 46/16/80 54/10/81 56/9/82 
f 46/16/80 48/18/83 51/3/84 54/6/81 
f 48/18/69 36/4/70 52/4/85 51/3/68 
f 36/4/65 35/3/66 64/18/63 52/4/64 
f 65/27/86 66/28/86 67/29/86 68/30/86 
f 69/27/87 70/28/87 71/29/87 72/30/87 
f 73/31/88 74/32/88 75/33/88 76/34/88 
f 66/35/89 69/36/89 72/37/89 67/38/89 
f 77/31/90 78/32/90 79/33/90 80/34/90 
f 68/35/91 71/36/91 70/37/91 65/38/91 
f 81/27/86 82/28/86 83/29/86 84/30/86 
f 85/27/87 86/28/87 87/29/87 88/30/87 
f 89/31/88 90/32/88 91/33/88 92/34/88 
f 82/35/89 85/36/89 88/37/89 83/38/89 
f 93/31/90 94/32/90 95/33/90 96/34/90 
f 84/35/91 87/36/91 86/37/91 81/38/91 
f 97/27/86 98/28/86 99/29/86 100/30/86 
f 101/27/87 102/28/87 103/29/87 104/30/87 
f 105/31/88 106/32/88 107/33/88 108/34/88 
f 98/35/89 101/36/89 104/37/89 99/38/89 
f 109/31/90 110/32/90 111/33/90 112/34/90 
f 100/35/91 103/36/91 102/37/91 97/38/91 
f 28/14/92 30/16/93 38/10/94 40/9/95 
f 30/16/93 32/18/96 35/3/97 38/6/94 
f 32/18/98 3/3/99 64/18/100 35/3/101 
f 3/3/102 6/6/103 62/16/104 64/18/105 
f 6/10/103 8/9/106 60/14/107 62/16/104 
f 8/9/108 28/14/109 40/9/110 60/14/111 
f 78/33/86 77/34/86 66/28/86 65/27/86 
f 74/31/86 73/32/86 68/30/86 67/29/86 
f 113/33/87 114/34/87 115/28/87 116/27/112 
f 117/31/113 118/32/113 119/30/113 120/29/113 
f 77/32/89 80/33/89 69/36/89 66/35/89 
f 75/34/89 74/31/89 67/38/89 72/37/89 
f 73/32/91 76/33/91 71/36/91 68/35/91 
f 79/34/91 78/31/91 65/38/91 70/37/91 
f 94/33/86 93/34/86 82/28/86 81/27/86 
f 90/31/86 89/32/86 84/30/86 83/29/86 
f 121/33/113 122/34/113 123/28/113 124/27/113 
f 125/31/87 126/32/112 127/30/113 128/29/87 
f 93/32/89 96/33/89 85/36/89 82/35/89 
f 91/34/89 90/31/89 83/38/89 88/37/89 
f 89/32/91 92/33/91 87/36/91 84/35/91 
f 95/34/91 94/31/91 81/38/91 86/37/91 
f 110/33/86 109/34/86 98/28/86 97/27/86 
f 106/31/86 105/32/86 100/30/86 99/29/86 
f 129/33/87 130/34/87 131/28/87 132/27/113 
f 133/31/87 134/32/87 135/30/87 136/29/87 
f 109/32/89 112/33/89 101/36/89 98/35/89 
f 107/34/89 106/31/89 99/38/89 104/37/89 
f 105/32/91 108/33/91 103/36/91 100/35/91 
f 111/34/91 110/31/91 97/38/91 102/37/91 
f 80/34/114 79/33/114 137/34/114 138/33/114 
f 79/34/115 70/37/115 139/28/115 137/34/115 
f 70/28/116 69/27/116 140/27/116 139/28/116 
f 69/36/117 80/33/117 138/33/117 140/27/117 
f 76/34/116 75/33/116 141/32/116 142/31/116 
f 75/34/117 72/37/117 143/30/117 141/32/117 
f 72/30/114 71/29/114 144/29/114 143/30/114 
f 71/36/115 76/33/115 142/31/115 144/29/115 
f 96/34/114 95/33/114 145/34/114 146/33/114 
f 95/34/115 86/37/115 147/28/115 145/34/115 
f 86/28/116 85/27/116 148/27/116 147/28/116 
f 85/36/117 96/33/117 146/33/117 148/27/117 
f 92/34/116 91/33/116 149/32/116 150/31/116 
f 91/34/117 88/37/117 151/30/117 149/32/117 
f 88/30/114 87/29/114 152/29/114 151/30/114 
f 87/36/115 92/33/115 150/31/115 152/29/115 
f 112/34/114 111/33/114 153/34/114 154/33/114 
f 111/34/115 102/37/115 155/28/115 153/34/115 
f 102/28/116 101/27/116 156/27/116 155/28/116 
f 101/36/117 112/33/117 154/33/117 156/27/117 
f 108/34/116 107/33/116 157/32/116 158/31/116 
f 107/34/117 104/37/117 159/30/117 157/32/117 
f 104/30/114 103/29/114 160/29/114 159/30/114 
f 103/36/115 108/33/115 158/31/115 160/29/115 
f 138/33/118 137/34/118 114/34/118 113/33/118 
f 137/34/91 139/28/91 115/28/91 114/34/91 
f 139/28/119 140/27/119 116/27/119 115/28/119 
f 140/27/89 138/33/89 113/33/89 116/27/89 
f 142/31/88 141/32/88 118/32/88 117/31/88 
f 141/32/89 143/30/89 119/30/89 118/32/89 
f 143/30/90 144/29/90 120/29/90 119/30/90 
f 144/29/120 142/31/120 117/31/120 120/29/120 
f 146/33/90 145/34/90 122/34/90 121/33/90 
f 145/34/91 147/28/91 123/28/91 122/34/91 
f 147/28/119 148/27/119 124/27/119 123/28/119 
f 148/27/89 146/33/89 121/33/89 124/27/89 
f 150/31/88 149/32/88 126/32/88 125/31/88 
f 149/32/121 151/30/121 127/30/121 126/32/121 
f 151/30/118 152/29/118 128/29/118 127/30/118 
f 152/29/91 150/31/91 125/31/91 128/29/91 
f 154/33/118 153/34/118 130/34/118 129/33/118 
f 153/34/91 155/28/91 131/28/91 130/34/91 
f 155/28/119 156/27/119 132/27/119 131/28/119 
f 156/27/121 154/33/121 129/33/121 132/27/121 
f 158/31/88 157/32/88 134/32/88 133/31/88 
f 157/32/89 159/30/89 135/30/89 134/32/89 
f 159/30/90 160/29/90 136/29/90 135/30/90 
f 160/29/91 158/31/91 133/31/91 136/29/91 
# 148 polygons - 8 triangles

